<svg width="23" height="23" viewBox="0 0 23 23" fill="none" xmlns="http://www.w3.org/2000/svg">
<path d="M11.2243 22.0448C10.6333 22.0451 10.1539 21.567 10.1535 20.9767L10.1409 1.73837C10.1405 1.14813 10.6193 0.669332 11.2104 0.668946C11.8014 0.668559 12.2808 1.14673 12.2812 1.73697L12.2938 20.9753C12.2942 21.5656 11.8154 22.0444 11.2243 22.0448Z" fill="white"/>
<path d="M0.623657 11.4717C0.623271 10.8814 1.1021 10.4026 1.69315 10.4022L20.9564 10.3896C21.5475 10.3892 22.027 10.8674 22.0273 11.4577C22.0277 12.0479 21.5489 12.5268 20.9578 12.5272L1.69455 12.5398C1.1035 12.5401 0.624044 12.0619 0.623657 11.4717Z" fill="white"/>
</svg>
