<svg width="5" height="13" viewBox="0 0 5 13" fill="none" xmlns="http://www.w3.org/2000/svg">
<path d="M2.49447 12.144C1.77447 12.144 1.19847 11.928 0.766469 11.496C0.350469 11.064 0.142469 10.496 0.142469 9.792C0.142469 9.104 0.350469 8.552 0.766469 8.136C1.19847 7.704 1.77447 7.488 2.49447 7.488C3.24647 7.488 3.82247 7.704 4.22247 8.136C4.63847 8.552 4.84647 9.104 4.84647 9.792C4.84647 10.496 4.63847 11.064 4.22247 11.496C3.82247 11.928 3.24647 12.144 2.49447 12.144ZM2.49447 4.704C1.77447 4.704 1.19847 4.488 0.766469 4.056C0.350469 3.608 0.142469 3.048 0.142469 2.376C0.142469 1.672 0.350469 1.112 0.766469 0.696C1.19847 0.263999 1.77447 0.0479994 2.49447 0.0479994C3.24647 0.0479994 3.82247 0.263999 4.22247 0.696C4.63847 1.112 4.84647 1.672 4.84647 2.376C4.84647 3.048 4.63847 3.608 4.22247 4.056C3.82247 4.488 3.24647 4.704 2.49447 4.704Z" fill="#1F1D2A"/>
</svg>
