<svg width="127" height="90" viewBox="0 0 127 90" fill="none" xmlns="http://www.w3.org/2000/svg">
<path fill-rule="evenodd" clip-rule="evenodd" d="M31.1418 45.9085L126.519 43.6569L38.5505 57.3468L29.1294 74.205L31.1418 45.9085Z" fill="#BEB58E"/>
<path d="M29.1294 74.205L45.959 68.785L38.5505 57.3468L29.1294 74.205Z" fill="#716B44"/>
<path d="M17.5136 24.9493L121.478 43.2759L31.4024 45.4019L17.5136 24.9493Z" fill="#EEECDB" stroke="#BEB58E"/>
<path d="M123.667 44.6074L54.6263 81.3077L39.3879 57.7223L123.667 44.6074Z" fill="#EEECDB" stroke="#BEB58E"/>
<path d="M86.8433 49.8357C87.9248 55.8901 81.9983 63.0695 73.0711 65.9851C59.4008 70.4497 50.7318 63.9499 48.3973 55.8083L86.8433 49.8357Z" fill="#FFD84E"/>
<path d="M57.7636 69.3544L54.4655 77.4195" stroke="#FFCD4E" stroke-width="2" stroke-linecap="round"/>
<path d="M48.1704 60.3573L43.5902 61.9009" stroke="#FFCD4E" stroke-width="2" stroke-linecap="round"/>
<path d="M100.19 50.8881L91.1829 51.3921" stroke="#FFCD4E" stroke-width="2" stroke-linecap="round"/>
<path d="M74.7141 66.8171L75.5065 69.0638" stroke="#FFCD4E" stroke-width="2" stroke-linecap="round"/>
<path d="M87.3839 58.3264L91.2684 60.5543" stroke="#FFCD4E" stroke-width="2" stroke-linecap="round"/>
<path d="M43.6316 45.6146C47.2483 39.8272 54.8824 39.0018 62.2872 38.8358C68.2435 38.7022 80.697 40.7508 83.3115 44.68L43.6316 45.6146Z" fill="#FFD84E"/>
<path d="M46.6324 56.08C45.3331 54.4945 43.6323 49.0314 43.6316 45.6146L83.3115 44.68C84.2827 46.4407 84.8947 48.9056 84.8748 50.1315L46.6324 56.08Z" fill="#C5992A"/>
<path d="M45.8555 39.566L38.2372 33.2367" stroke="#FFCD4E" stroke-width="2" stroke-linecap="round"/>
<path d="M85.275 37.9516L81.4331 40.7756" stroke="#FFCD4E" stroke-width="2" stroke-linecap="round"/>
<path d="M72.2004 35.638L71.565 37.5217" stroke="#FFCD4E" stroke-width="2" stroke-linecap="round"/>
<path d="M57.9489 34.0265L58.6493 36.3804" stroke="#FFCD4E" stroke-width="2" stroke-linecap="round"/>
<path d="M30.4403 38.2713C31.2497 38.2842 30.8653 39.1724 30.0559 39.1595C29.3234 38.969 29.6309 38.2585 30.4403 38.2713Z" fill="#E0CAEF"/>
<path d="M44.8001 32.4214C45.1698 32.4273 44.9942 32.8329 44.6245 32.8271C44.2899 32.74 44.4303 32.4155 44.8001 32.4214Z" fill="#E0CAEF"/>
<path d="M49.0814 65.8915C49.8908 65.9043 49.5064 66.7925 48.697 66.7796C47.9645 66.5891 48.272 65.8786 49.0814 65.8915Z" fill="#E0CAEF"/>
<path d="M37.6795 41.6092C37.9493 41.6135 37.9493 41.6135 37.6795 41.6092C38.5281 42.1592 36.9484 42.6706 36.6394 42.1292C36.6394 42.1292 36.7164 41.9515 36.4466 41.9472C36.0607 41.5834 37.5635 41.2496 37.6795 41.6092Z" fill="#E0CAEF"/>
<path d="M101.322 41.0862C101.592 41.0905 101.592 41.0905 101.322 41.0862C102.171 41.6363 100.591 42.1477 100.282 41.6062C100.282 41.6062 100.359 41.4286 100.089 41.4243C99.7031 41.0605 101.206 40.7267 101.322 41.0862Z" fill="#E0CAEF"/>
<path d="M108.189 48.2732C108.438 48.1885 108.438 48.1885 108.189 48.2732C109.44 48.6826 108.448 49.854 107.695 49.2752C107.695 49.2752 107.611 49.0259 107.362 49.1105C106.694 48.7811 107.77 47.8592 108.189 48.2732Z" fill="#E0CAEF"/>
<path d="M30.533 30.4146C30.8028 30.4189 30.8028 30.4189 30.533 30.4146C31.3816 30.9647 29.8019 31.476 29.4929 30.9346C29.4929 30.9346 29.5699 30.757 29.3001 30.7527C28.9142 30.3888 30.417 30.0551 30.533 30.4146Z" fill="#E0CAEF"/>
<path d="M98.9666 54.7215C99.7141 54.4675 100.053 55.4649 99.3056 55.7189C98.5581 55.9729 98.2192 54.9755 98.9666 54.7215Z" fill="#E0CAEF"/>
<path d="M50.0659 32.9342C50.9996 32.617 51.423 33.8629 50.4893 34.1802C49.5556 34.4974 49.1323 33.2515 50.0659 32.9342Z" fill="#E0CAEF"/>
<path d="M62.7098 72.1854C63.4573 71.9314 63.7962 72.9288 63.0488 73.1828C62.3013 73.4368 61.9624 72.4394 62.7098 72.1854Z" fill="#E0CAEF"/>
<path d="M88.6151 41.5441C89.4245 41.5569 89.117 42.2674 88.3076 42.2545C87.4982 42.2417 87.8057 41.5312 88.6151 41.5441Z" fill="#E0CAEF"/>
</svg>
